<svg xmlns="http://www.w3.org/2000/svg" xmlns:xlink="http://www.w3.org/1999/xlink" width="500" zoomAndPan="magnify" viewBox="0 0 375 374.999991" height="500" preserveAspectRatio="xMidYMid meet" version="1.0"><path fill="#ffffff" d="M 184.75 179.875 L 99.875 117.125 L 275.125 117.125 L 190.25 179.875 C 189.855469 180.179688 189.421875 180.410156 188.953125 180.570312 C 188.480469 180.730469 187.996094 180.8125 187.5 180.8125 C 187.003906 180.8125 186.519531 180.730469 186.046875 180.570312 C 185.578125 180.410156 185.144531 180.179688 184.75 179.875 Z M 184.75 179.875 " fill-opacity="1" fill-rule="nonzero"/><path fill="#ffffff" d="M 206.75 202.25 L 303.375 130.75 L 303.375 253.25 C 303.375 253.554688 303.347656 253.855469 303.289062 254.152344 C 303.230469 254.449219 303.140625 254.742188 303.027344 255.019531 C 302.910156 255.300781 302.765625 255.570312 302.597656 255.820312 C 302.429688 256.074219 302.238281 256.308594 302.023438 256.523438 C 301.808594 256.738281 301.574219 256.929688 301.320312 257.097656 C 301.070312 257.265625 300.800781 257.410156 300.523438 257.527344 C 300.242188 257.640625 299.949219 257.730469 299.652344 257.789062 C 299.355469 257.847656 299.054688 257.875 298.75 257.875 L 76.25 257.875 C 75.945312 257.875 75.644531 257.847656 75.347656 257.789062 C 75.050781 257.730469 74.757812 257.640625 74.476562 257.527344 C 74.199219 257.410156 73.929688 257.265625 73.679688 257.097656 C 73.425781 256.929688 73.191406 256.738281 72.976562 256.523438 C 72.761719 256.308594 72.570312 256.074219 72.402344 255.820312 C 72.234375 255.570312 72.089844 255.300781 71.972656 255.023438 C 71.859375 254.742188 71.769531 254.449219 71.710938 254.152344 C 71.652344 253.855469 71.625 253.554688 71.625 253.25 L 71.625 130.75 L 168.25 202.25 C 169.625 203.296875 171.074219 204.226562 172.597656 205.035156 C 174.125 205.847656 175.703125 206.527344 177.339844 207.082031 C 178.976562 207.632812 180.648438 208.050781 182.351562 208.332031 C 184.058594 208.609375 185.773438 208.75 187.5 208.75 C 189.226562 208.75 190.941406 208.609375 192.648438 208.332031 C 194.351562 208.050781 196.023438 207.632812 197.660156 207.082031 C 199.296875 206.527344 200.875 205.847656 202.402344 205.035156 C 203.925781 204.226562 205.375 203.296875 206.75 202.25 Z M 206.75 202.25 " fill-opacity="1" fill-rule="nonzero"/><path fill="#ffffff" d="M 325 0 L 50 0 C 48.363281 0 46.730469 0.078125 45.097656 0.238281 C 43.46875 0.398438 41.851562 0.640625 40.246094 0.957031 C 38.636719 1.277344 37.050781 1.675781 35.484375 2.148438 C 33.917969 2.625 32.375 3.175781 30.863281 3.800781 C 29.351562 4.429688 27.871094 5.128906 26.425781 5.898438 C 24.984375 6.671875 23.578125 7.511719 22.21875 8.421875 C 20.855469 9.332031 19.542969 10.304688 18.277344 11.34375 C 17.011719 12.382812 15.796875 13.484375 14.640625 14.640625 C 13.484375 15.796875 12.382812 17.011719 11.34375 18.277344 C 10.304688 19.542969 9.332031 20.855469 8.421875 22.21875 C 7.511719 23.578125 6.671875 24.984375 5.898438 26.425781 C 5.128906 27.871094 4.429688 29.351562 3.800781 30.863281 C 3.175781 32.375 2.625 33.917969 2.148438 35.484375 C 1.675781 37.050781 1.277344 38.636719 0.957031 40.246094 C 0.640625 41.851562 0.398438 43.46875 0.238281 45.097656 C 0.078125 46.730469 0 48.363281 0 50 L 0 325 C 0 326.636719 0.078125 328.269531 0.238281 329.902344 C 0.398438 331.53125 0.640625 333.148438 0.957031 334.753906 C 1.277344 336.363281 1.675781 337.949219 2.148438 339.515625 C 2.625 341.082031 3.175781 342.625 3.800781 344.136719 C 4.429688 345.648438 5.128906 347.128906 5.898438 348.574219 C 6.671875 350.015625 7.511719 351.421875 8.421875 352.78125 C 9.332031 354.144531 10.304688 355.457031 11.34375 356.722656 C 12.382812 357.988281 13.484375 359.203125 14.640625 360.359375 C 15.796875 361.515625 17.011719 362.617188 18.277344 363.65625 C 19.542969 364.695312 20.855469 365.667969 22.21875 366.578125 C 23.578125 367.488281 24.984375 368.328125 26.425781 369.101562 C 27.871094 369.871094 29.351562 370.570312 30.863281 371.199219 C 32.375 371.824219 33.917969 372.375 35.484375 372.851562 C 37.050781 373.324219 38.636719 373.722656 40.246094 374.042969 C 41.851562 374.359375 43.46875 374.601562 45.097656 374.761719 C 46.730469 374.921875 48.363281 375 50 375 L 325 375 C 326.636719 375 328.269531 374.921875 329.902344 374.761719 C 331.53125 374.601562 333.148438 374.359375 334.753906 374.042969 C 336.363281 373.722656 337.949219 373.324219 339.515625 372.851562 C 341.082031 372.375 342.625 371.824219 344.136719 371.199219 C 345.648438 370.570312 347.128906 369.871094 348.574219 369.101562 C 350.015625 368.328125 351.421875 367.488281 352.78125 366.578125 C 354.144531 365.667969 355.457031 364.695312 356.722656 363.65625 C 357.988281 362.617188 359.203125 361.515625 360.359375 360.359375 C 361.515625 359.203125 362.617188 357.988281 363.65625 356.722656 C 364.695312 355.457031 365.667969 354.144531 366.578125 352.78125 C 367.488281 351.421875 368.328125 350.015625 369.101562 348.574219 C 369.871094 347.128906 370.570312 345.648438 371.199219 344.136719 C 371.824219 342.625 372.375 341.082031 372.851562 339.515625 C 373.324219 337.949219 373.722656 336.363281 374.042969 334.753906 C 374.359375 333.148438 374.601562 331.53125 374.761719 329.902344 C 374.921875 328.269531 375 326.636719 375 325 L 375 50 C 375 48.363281 374.921875 46.730469 374.761719 45.097656 C 374.601562 43.46875 374.359375 41.851562 374.042969 40.246094 C 373.722656 38.636719 373.324219 37.050781 372.851562 35.484375 C 372.375 33.917969 371.824219 32.375 371.199219 30.863281 C 370.570312 29.351562 369.871094 27.871094 369.101562 26.425781 C 368.328125 24.984375 367.488281 23.578125 366.578125 22.21875 C 365.667969 20.855469 364.695312 19.542969 363.65625 18.277344 C 362.617188 17.011719 361.515625 15.796875 360.359375 14.640625 C 359.203125 13.484375 357.988281 12.382812 356.722656 11.34375 C 355.457031 10.304688 354.144531 9.332031 352.78125 8.421875 C 351.421875 7.511719 350.015625 6.671875 348.574219 5.898438 C 347.128906 5.128906 345.648438 4.429688 344.136719 3.800781 C 342.625 3.175781 341.082031 2.625 339.515625 2.148438 C 337.949219 1.675781 336.363281 1.277344 334.753906 0.957031 C 333.148438 0.640625 331.53125 0.398438 329.902344 0.238281 C 328.269531 0.078125 326.636719 0 325 0 Z M 331.25 253.25 C 331.246094 254.3125 331.191406 255.375 331.085938 256.433594 C 330.976562 257.492188 330.820312 258.542969 330.609375 259.582031 C 330.398438 260.625 330.140625 261.65625 329.828125 262.671875 C 329.519531 263.691406 329.160156 264.691406 328.75 265.671875 C 328.34375 266.65625 327.886719 267.613281 327.382812 268.550781 C 326.882812 269.488281 326.335938 270.398438 325.742188 271.285156 C 325.152344 272.167969 324.519531 273.019531 323.84375 273.84375 C 323.167969 274.664062 322.457031 275.449219 321.703125 276.203125 C 320.949219 276.957031 320.164062 277.667969 319.34375 278.34375 C 318.519531 279.019531 317.667969 279.652344 316.785156 280.242188 C 315.898438 280.835938 314.988281 281.382812 314.050781 281.882812 C 313.113281 282.386719 312.15625 282.84375 311.171875 283.25 C 310.191406 283.660156 309.191406 284.019531 308.171875 284.328125 C 307.15625 284.640625 306.125 284.898438 305.082031 285.109375 C 304.042969 285.320312 302.992188 285.476562 301.933594 285.585938 C 300.875 285.691406 299.8125 285.746094 298.75 285.75 L 76.25 285.75 C 75.1875 285.746094 74.125 285.691406 73.066406 285.585938 C 72.007812 285.476562 70.957031 285.320312 69.917969 285.109375 C 68.875 284.898438 67.84375 284.640625 66.828125 284.328125 C 65.808594 284.019531 64.808594 283.660156 63.828125 283.25 C 62.84375 282.84375 61.886719 282.386719 60.949219 281.882812 C 60.011719 281.382812 59.101562 280.835938 58.214844 280.242188 C 57.332031 279.652344 56.480469 279.019531 55.65625 278.34375 C 54.835938 277.667969 54.050781 276.957031 53.296875 276.203125 C 52.542969 275.449219 51.832031 274.664062 51.15625 273.84375 C 50.480469 273.019531 49.847656 272.167969 49.257812 271.285156 C 48.664062 270.398438 48.117188 269.488281 47.617188 268.550781 C 47.113281 267.613281 46.65625 266.65625 46.25 265.671875 C 45.839844 264.691406 45.480469 263.691406 45.171875 262.671875 C 44.859375 261.65625 44.601562 260.625 44.390625 259.582031 C 44.179688 258.542969 44.023438 257.492188 43.914062 256.433594 C 43.808594 255.375 43.753906 254.3125 43.75 253.25 L 43.75 121.75 C 43.753906 120.6875 43.808594 119.625 43.914062 118.566406 C 44.023438 117.507812 44.179688 116.457031 44.390625 115.417969 C 44.601562 114.375 44.859375 113.34375 45.171875 112.328125 C 45.480469 111.308594 45.839844 110.308594 46.25 109.328125 C 46.65625 108.34375 47.113281 107.386719 47.617188 106.449219 C 48.117188 105.511719 48.664062 104.601562 49.257812 103.714844 C 49.847656 102.832031 50.480469 101.980469 51.15625 101.15625 C 51.832031 100.335938 52.542969 99.546875 53.296875 98.796875 C 54.050781 98.042969 54.835938 97.332031 55.65625 96.65625 C 56.480469 95.980469 57.332031 95.347656 58.214844 94.757812 C 59.101562 94.164062 60.011719 93.617188 60.949219 93.117188 C 61.886719 92.613281 62.84375 92.15625 63.828125 91.75 C 64.808594 91.339844 65.808594 90.980469 66.828125 90.671875 C 67.84375 90.359375 68.875 90.101562 69.917969 89.890625 C 70.957031 89.679688 72.007812 89.523438 73.066406 89.414062 C 74.125 89.308594 75.1875 89.253906 76.25 89.25 L 298.75 89.25 C 299.8125 89.253906 300.875 89.308594 301.933594 89.414062 C 302.992188 89.523438 304.042969 89.679688 305.082031 89.890625 C 306.125 90.101562 307.15625 90.359375 308.171875 90.671875 C 309.191406 90.980469 310.191406 91.339844 311.171875 91.75 C 312.15625 92.15625 313.113281 92.613281 314.050781 93.117188 C 314.988281 93.617188 315.898438 94.164062 316.785156 94.757812 C 317.667969 95.347656 318.519531 95.980469 319.34375 96.65625 C 320.164062 97.332031 320.949219 98.042969 321.703125 98.796875 C 322.457031 99.546875 323.167969 100.335938 323.84375 101.15625 C 324.519531 101.980469 325.152344 102.832031 325.742188 103.714844 C 326.335938 104.601562 326.882812 105.511719 327.382812 106.449219 C 327.886719 107.386719 328.34375 108.34375 328.75 109.328125 C 329.160156 110.308594 329.519531 111.308594 329.828125 112.328125 C 330.140625 113.34375 330.398438 114.375 330.609375 115.417969 C 330.820312 116.457031 330.976562 117.507812 331.085938 118.566406 C 331.191406 119.625 331.246094 120.6875 331.25 121.75 Z M 331.25 253.25 " fill-opacity="1" fill-rule="nonzero"/></svg>