<svg xmlns="http://www.w3.org/2000/svg" xmlns:xlink="http://www.w3.org/1999/xlink" width="500" zoomAndPan="magnify" viewBox="0 0 375 374.999991" height="500" preserveAspectRatio="xMidYMid meet" version="1.0"><defs><clipPath id="5a61d16201"><path d="M 0 0.863281 L 375 0.863281 L 375 375 L 0 375 Z M 0 0.863281 " clip-rule="nonzero"/></clipPath></defs><g clip-path="url(#5a61d16201)"><path fill="#ffffff" d="M 343.671875 0.863281 L 31.515625 0.863281 C 14.257812 0.863281 0.375 14.933594 0.375 32.003906 L 0.375 344.722656 C 0.375 361.980469 14.445312 375.863281 31.515625 375.863281 L 343.484375 375.863281 C 360.742188 375.863281 374.625 361.792969 374.625 344.722656 L 374.625 32.003906 C 374.8125 14.933594 360.929688 0.863281 343.671875 0.863281 Z M 111.242188 310.207031 L 55.902344 310.207031 L 55.902344 144 L 111.242188 144 Z M 83.480469 123.925781 C 66.03125 123.925781 51.964844 109.855469 51.964844 92.410156 C 51.964844 74.964844 66.03125 60.894531 83.480469 60.894531 C 100.925781 60.894531 114.996094 74.964844 114.996094 92.410156 C 114.996094 109.855469 100.925781 123.925781 83.480469 123.925781 Z M 319.472656 310.207031 L 263.945312 310.207031 L 262.632812 211.53125 C 262.632812 211.53125 263.945312 185.269531 235.242188 185.457031 C 206.539062 185.644531 202.601562 211.53125 202.601562 211.53125 L 202.601562 310.207031 L 146.699219 310.207031 L 146.699219 144 L 200.351562 144 L 200.351562 166.882812 C 200.351562 166.882812 202.601562 159.378906 214.984375 150.5625 C 227.363281 141.746094 247.8125 139.871094 256.628906 140.246094 C 265.445312 140.621094 277.453125 139.121094 297.523438 153.003906 C 319.097656 167.824219 319.660156 206.65625 319.660156 206.65625 Z M 319.472656 310.207031 " fill-opacity="1" fill-rule="nonzero"/></g></svg>